<?xml version="1.0" standalone="no"?>
<!DOCTYPE svg PUBLIC "-//W3C//DTD SVG 20010904//EN"
 "http://www.w3.org/TR/2001/REC-SVG-20010904/DTD/svg10.dtd">
<svg version="1.0" xmlns="http://www.w3.org/2000/svg"
 width="256.000000pt" height="256.000000pt" viewBox="0 0 256.000000 256.000000"
 preserveAspectRatio="xMidYMid meet">
<metadata>
Created by potrace 1.11, written by Peter Selinger 2001-2013
</metadata>
<g transform="translate(0.000000,256.000000) scale(0.100000,-0.100000)"
fill="#000000" stroke="none">
<path d="M1261 2412 c-12 -42 -34 -101 -48 -131 l-27 -56 -17 39 -17 40 -7
-50 c-8 -67 -16 -79 -56 -82 -48 -4 -117 44 -198 139 -36 43 -66 77 -68 75 -1
-1 2 -29 7 -62 6 -32 10 -93 10 -133 l0 -75 -35 34 -34 33 19 -62 c19 -62 18
-63 -2 -83 -34 -34 -112 -20 -240 45 l-107 54 25 -41 c29 -47 79 -150 89 -183
8 -27 -4 -29 -45 -8 -17 9 -30 13 -30 10 0 -3 16 -26 35 -51 20 -26 35 -54 33
-62 -2 -9 -19 -25 -38 -36 -29 -18 -52 -21 -135 -21 -55 0 -120 4 -145 8 l-45
7 35 -27 c63 -49 170 -156 170 -170 0 -9 -15 -13 -47 -13 l-48 0 53 -31 c29
-16 56 -37 59 -45 15 -39 -117 -122 -255 -160 l-63 -17 82 -24 c84 -24 189
-71 189 -84 0 -4 -19 -15 -42 -24 l-43 -18 67 -11 c37 -7 70 -15 74 -19 4 -4
2 -25 -5 -47 -12 -41 -85 -123 -176 -197 l-49 -40 49 8 c28 4 93 8 145 8 l94
1 -39 -41 c-27 -29 -34 -40 -20 -35 43 15 117 28 132 22 12 -5 15 -18 11 -67
-4 -49 -15 -82 -60 -169 l-56 -109 41 26 c58 37 178 93 199 93 16 0 16 -3 -2
-45 -11 -25 -17 -45 -15 -45 2 0 30 18 61 40 54 37 59 39 75 24 33 -30 42 -81
35 -193 -3 -58 -9 -117 -13 -131 -6 -22 -3 -21 22 10 42 52 158 170 167 170 5
0 8 -26 8 -57 l0 -58 43 67 c23 38 49 68 58 68 36 0 105 -117 140 -238 10 -36
20 -66 22 -68 1 -2 13 30 26 71 16 52 28 76 42 80 11 4 27 18 36 32 l17 25 9
-23 c9 -23 9 -23 17 -4 5 11 11 40 15 65 8 66 16 74 61 65 30 -5 55 -24 116
-85 l78 -78 0 -56 c0 -47 4 -61 24 -81 52 -52 128 -38 159 28 24 50 22 64 -26
148 -41 71 -67 142 -82 216 -5 27 -2 34 19 48 35 23 93 14 183 -29 76 -37 92
-51 74 -69 -6 -6 -11 -30 -11 -54 0 -35 6 -48 35 -78 40 -39 71 -44 115 -18
34 20 65 83 57 115 -6 21 -80 152 -97 172 -5 4 -21 -11 -35 -35 l-28 -43 -28
55 c-15 30 -28 57 -29 62 0 4 17 7 38 7 77 0 182 68 229 147 23 40 29 44 56
40 29 -4 30 -3 11 12 -17 14 -19 28 -16 116 1 55 5 125 8 155 4 39 2 67 -10
93 -17 43 -23 38 71 66 l58 18 -45 12 c-64 18 -190 71 -190 81 0 4 17 14 37
23 l37 14 -67 7 c-56 6 -70 12 -84 32 -14 22 -14 28 1 68 16 41 113 146 191
205 29 22 29 22 5 17 -14 -3 -69 -8 -123 -12 -98 -7 -115 -1 -82 26 28 23 15
27 -40 12 -54 -15 -55 -15 -81 9 -23 22 -25 30 -22 82 3 46 16 80 56 159 28
54 48 98 44 96 -4 -2 -51 -25 -104 -52 -54 -27 -101 -46 -105 -43 -3 4 -1 18
5 32 15 33 10 32 -45 -10 -42 -32 -48 -34 -67 -22 -45 31 -61 65 -64 145 -2
42 1 108 6 147 l9 70 -36 -45 c-19 -25 -60 -70 -91 -100 l-55 -55 -3 44 -3 44
-33 -54 c-37 -61 -59 -70 -100 -38 -42 33 -73 90 -110 198 l-33 98 -22 -75z
m244 -326 c50 -15 113 -38 141 -52 101 -48 271 -200 309 -275 l17 -34 -38 37
c-72 70 -103 93 -176 132 l-73 39 68 -63 c75 -69 144 -160 175 -232 24 -54 14
-63 -18 -18 -24 34 -78 45 -65 13 4 -10 9 -26 12 -35 3 -9 22 -22 42 -29 81
-25 140 -83 156 -154 5 -21 -1 -14 -20 23 -74 144 -243 163 -349 41 -23 -27
-34 -34 -26 -19 26 52 75 91 140 111 l25 7 -26 1 c-15 1 -46 10 -70 21 -33 14
-66 20 -129 20 -101 0 -162 -24 -235 -91 -25 -23 -43 -35 -39 -26 4 12 -3 17
-33 23 -21 4 -46 7 -55 6 -10 0 -18 5 -18 13 0 7 -15 15 -37 18 -21 3 -45 7
-53 10 -8 2 -30 8 -47 12 -18 4 -33 11 -33 16 0 5 -7 5 -17 2 -10 -4 -14 -2
-9 5 5 8 -31 29 -41 23 -2 0 -12 8 -23 19 -11 11 -27 20 -36 20 -8 0 -12 5 -9
10 6 10 -7 14 -34 11 -7 -2 -10 2 -7 8 4 5 1 13 -5 16 -5 4 -8 13 -5 20 3 8
-5 15 -20 18 -20 4 -33 -5 -67 -44 -34 -39 -48 -49 -73 -49 -23 0 -36 -7 -48
-25 -9 -14 -21 -25 -27 -25 -5 0 7 33 28 72 37 70 133 179 213 242 30 24 24
22 -40 -11 -95 -48 -182 -118 -233 -186 -47 -63 -54 -69 -37 -37 28 53 146
197 196 240 206 171 494 231 749 156z m210 -501 c55 -24 28 -30 -48 -11 -122
31 -241 -15 -317 -121 -35 -48 -50 -52 -27 -6 20 37 84 101 122 121 86 45 191
52 270 17z m-1045 -815 c0 -11 132 -90 195 -118 75 -33 282 -82 348 -82 l57 0
-20 -40 c-12 -23 -27 -43 -35 -46 -23 -9 -225 46 -290 79 -33 16 -91 54 -130
83 -76 57 -171 149 -142 138 9 -3 17 -10 17 -14z m1127 -106 c-85 -72 -251
-150 -363 -168 -40 -7 -43 -6 -63 28 -13 20 -20 40 -17 44 3 5 29 12 58 16
118 16 294 79 357 128 23 17 25 18 44 1 19 -18 18 -18 -16 -49z m-30 -303
c-15 -23 -29 -41 -32 -41 -3 0 -5 33 -5 72 l0 73 32 -32 31 -32 -26 -40z m453
29 c9 -17 6 -25 -14 -45 -36 -36 -56 -33 -56 8 0 54 47 79 70 37z m-832 -56
c3 -23 -42 -68 -62 -61 -14 5 -15 57 -2 75 15 21 60 11 64 -14z m486 -157 c9
-15 6 -23 -17 -43 -40 -34 -57 -31 -57 9 0 18 6 39 12 45 17 17 48 11 62 -11z"/>
</g>
</svg>
